# xmcd
#
# Track frame offsets:
#  150
#  32360
#  58862
#  76492
#  91447
#  110747
#  123967
#  142865
#  149055
#  170190
#  200780
#  209607
#  237280
#  287970
#
# Disc length: 4786 seconds
#
# Revision: 0
# Processed by: cddbd v1.5.1PL0 Copyright (c) Steve Scherf et al.
# Submitted via: Collectorz.com Music Collector 6.9
#
DISCID=df12b00e
DTITLE=MoFro - Blackwater
DYEAR=2001
DGENRE=Soul, Funk, R&B
TTITLE0=Blackwater
TTITLE1=Ho Cake
TTITLE2=Air
TTITLE3=Jookhouse
TTITLE4=Nare Sugar
TTITLE5=Free
TTITLE6=Florida
TTITLE7=Cracka Break
TTITLE8=Lazy Fo Acre
TTITLE9=Santa Claus, True Love and Freedom
TTITLE10=Frog Giggin'
TTITLE11=Whitehouse
TTITLE12=Brighter Days
TTITLE13=Data track
EXTD=
EXTT0=
EXTT1=
EXTT2=
EXTT3=
EXTT4=
EXTT5=
EXTT6=
EXTT7=
EXTT8=
EXTT9=
EXTT10=
EXTT11=
EXTT12=
EXTT13=
PLAYORDER=
